<?xml version="1.0" encoding="UTF-8" standalone="no"?>
<svg
   xmlns:dc="http://purl.org/dc/elements/1.1/"
   xmlns:cc="http://creativecommons.org/ns#"
   xmlns:rdf="http://www.w3.org/1999/02/22-rdf-syntax-ns#"
   xmlns:svg="http://www.w3.org/2000/svg"
   xmlns="http://www.w3.org/2000/svg"
   xmlns:sodipodi="http://sodipodi.sourceforge.net/DTD/sodipodi-0.dtd"
   xmlns:inkscape="http://www.inkscape.org/namespaces/inkscape"
   data-name="025_SCIENCE"
   id="_025_SCIENCE"
   viewBox="0 0 24 24"
   version="1.1"
   sodipodi:docname="icon-neuron.svg"
   inkscape:version="1.0.1 (3bc2e813f5, 2020-09-07)">
  <metadata
     id="metadata27">
    <rdf:RDF>
      <cc:Work
         rdf:about="">
        <dc:format>image/svg+xml</dc:format>
        <dc:type
           rdf:resource="http://purl.org/dc/dcmitype/StillImage" />
      </cc:Work>
    </rdf:RDF>
  </metadata>
  <sodipodi:namedview
     pagecolor="#ffffff"
     bordercolor="#666666"
     borderopacity="1"
     objecttolerance="10"
     gridtolerance="10"
     guidetolerance="10"
     inkscape:pageopacity="0"
     inkscape:pageshadow="2"
     inkscape:window-width="1920"
     inkscape:window-height="1016"
     id="namedview25"
     showgrid="false"
     inkscape:zoom="15.6875"
     inkscape:cx="9.9784665"
     inkscape:cy="11.64014"
     inkscape:window-x="0"
     inkscape:window-y="604"
     inkscape:window-maximized="1"
     inkscape:current-layer="_025_SCIENCE" />
  <defs
     id="defs4">
    <style
       id="style2">.cls-1{fill:#333;}</style>
  </defs>
  <path
     class="cls-1"
     d="M6,9A3,3,0,1,1,9,6,3,3,0,0,1,6,9ZM6,5A1,1,0,1,0,7,6,1,1,0,0,0,6,5Z"
     id="path6"
     style="fill:#ffffff;fill-opacity:1" />
  <path
     class="cls-1"
     d="M12,15a3,3,0,1,1,3-3A3,3,0,0,1,12,15Zm0-4a1,1,0,1,0,1,1A1,1,0,0,0,12,11Z"
     id="path8"
     style="fill:#ffffff;fill-opacity:1" />
  <path
     class="cls-1"
     d="M18,9a3,3,0,1,1,3-3A3,3,0,0,1,18,9Zm0-4a1,1,0,1,0,1,1A1,1,0,0,0,18,5Z"
     id="path10"
     style="fill:#ffffff;fill-opacity:1" />
  <path
     class="cls-1"
     d="M18,21a3,3,0,1,1,3-3A3,3,0,0,1,18,21Zm0-4a1,1,0,1,0,1,1A1,1,0,0,0,18,17Z"
     id="path12"
     style="fill:#ffffff;fill-opacity:1" />
  <path
     class="cls-1"
     d="M6,21a3,3,0,1,1,3-3A3,3,0,0,1,6,21Zm0-4a1,1,0,1,0,1,1A1,1,0,0,0,6,17Z"
     id="path14"
     style="fill:#ffffff;fill-opacity:1" />
  <rect
     class="cls-1"
     height="4.83"
     transform="translate(-3.73 9) rotate(-45)"
     width="2"
     x="8"
     y="6.59"
     id="rect16"
     style="fill:#ffffff;fill-opacity:1" />
  <rect
     class="cls-1"
     height="2"
     transform="translate(-1.97 13.24) rotate(-45)"
     width="4.83"
     x="12.59"
     y="8"
     id="rect18"
     style="fill:#ffffff;fill-opacity:1" />
  <rect
     class="cls-1"
     height="2"
     transform="translate(-7.97 10.76) rotate(-45)"
     width="4.83"
     x="6.59"
     y="14"
     id="rect20"
     style="fill:#ffffff;fill-opacity:1" />
  <rect
     class="cls-1"
     height="4.83"
     transform="translate(-6.21 15) rotate(-45)"
     width="2"
     x="14"
     y="12.59"
     id="rect22"
     style="fill:#ffffff;fill-opacity:1" />
</svg>
